<svg xmlns="http://www.w3.org/2000/svg" width="920" height="520" viewBox="0 0 920 520" role="img" aria-label="Candidate ceilings vs current final top-20">
<rect width="100%" height="100%" fill="#fff"/>
<text x="70" y="34" font-family="Inter, Arial, sans-serif" font-size="22" font-weight="700" fill="#172033">Candidate ceilings vs current final top-20</text>
<line x1="70" x2="884" y1="448.0" y2="448.0" stroke="#e5e7eb"/>
<text x="58" y="452.0" text-anchor="end" font-family="Inter, Arial, sans-serif" font-size="12" fill="#5b6575">0%</text>
<line x1="70" x2="884" y1="372.4" y2="372.4" stroke="#e5e7eb"/>
<text x="58" y="376.4" text-anchor="end" font-family="Inter, Arial, sans-serif" font-size="12" fill="#5b6575">20%</text>
<line x1="70" x2="884" y1="296.8" y2="296.8" stroke="#e5e7eb"/>
<text x="58" y="300.8" text-anchor="end" font-family="Inter, Arial, sans-serif" font-size="12" fill="#5b6575">40%</text>
<line x1="70" x2="884" y1="221.2" y2="221.2" stroke="#e5e7eb"/>
<text x="58" y="225.2" text-anchor="end" font-family="Inter, Arial, sans-serif" font-size="12" fill="#5b6575">60%</text>
<line x1="70" x2="884" y1="145.6" y2="145.6" stroke="#e5e7eb"/>
<text x="58" y="149.6" text-anchor="end" font-family="Inter, Arial, sans-serif" font-size="12" fill="#5b6575">80%</text>
<line x1="70" x2="884" y1="70.0" y2="70.0" stroke="#e5e7eb"/>
<text x="58" y="74.0" text-anchor="end" font-family="Inter, Arial, sans-serif" font-size="12" fill="#5b6575">100%</text>
<rect x="70.0" y="344.6" width="184.0" height="103.4" rx="6" fill="#2563eb"/>
<text x="162.0" y="334.6" text-anchor="middle" font-family="Inter, Arial, sans-serif" font-size="14" font-weight="700" fill="#172033">27.4%</text>
<text x="162.0" y="488" text-anchor="middle" font-family="Inter, Arial, sans-serif" font-size="13" fill="#172033">Final@20</text>
<rect x="280.0" y="267.8" width="184.0" height="180.2" rx="6" fill="#0f766e"/>
<text x="372.0" y="257.8" text-anchor="middle" font-family="Inter, Arial, sans-serif" font-size="14" font-weight="700" fill="#172033">47.7%</text>
<text x="372.0" y="488" text-anchor="middle" font-family="Inter, Arial, sans-serif" font-size="13" fill="#172033">Union@20</text>
<rect x="490.0" y="197.6" width="184.0" height="250.4" rx="6" fill="#7c3aed"/>
<text x="582.0" y="187.6" text-anchor="middle" font-family="Inter, Arial, sans-serif" font-size="14" font-weight="700" fill="#172033">66.2%</text>
<text x="582.0" y="488" text-anchor="middle" font-family="Inter, Arial, sans-serif" font-size="13" fill="#172033">Union@100</text>
<rect x="700.0" y="105.8" width="184.0" height="342.2" rx="6" fill="#c2410c"/>
<text x="792.0" y="95.8" text-anchor="middle" font-family="Inter, Arial, sans-serif" font-size="14" font-weight="700" fill="#172033">90.5%</text>
<text x="792.0" y="488" text-anchor="middle" font-family="Inter, Arial, sans-serif" font-size="13" fill="#172033">Union@1000</text>
</svg>